HIERARCHY
ROOT joint_Root
{
	OFFSET 0.0 0.0 0.0
	CHANNELS 6 Xposition Yposition Zposition Zrotation Xrotation Yrotation 
	JOINT Hips
	{
		OFFSET -0.726466 93.3139 -2.00062
		CHANNELS 6 Xposition Yposition Zposition Zrotation Xrotation Yrotation 
		JOINT Spine
		{
			OFFSET 15.7357 0.0 0.0
			CHANNELS 6 Xposition Yposition Zposition Zrotation Xrotation Yrotation 
			JOINT Chest
			{
				OFFSET 8.98455 -0.406207 0.0
				CHANNELS 6 Xposition Yposition Zposition Zrotation Xrotation Yrotation 
				JOINT Neck
				{
					OFFSET 16.3773 0.0 0.0
					CHANNELS 6 Xposition Yposition Zposition Zrotation Xrotation Yrotation 
					JOINT Head
					{
						OFFSET 6.45672 0.0 0.0
						CHANNELS 6 Xposition Yposition Zposition Zrotation Xrotation Yrotation 
						End Site
						{
							OFFSET 0.0 0.0 0.0
						}
					}
				}
				JOINT Shoulder_L
				{
					OFFSET 12.9942 -0.242716 4.98039
					CHANNELS 6 Xposition Yposition Zposition Zrotation Xrotation Yrotation 
					JOINT UpperArm_L
					{
						OFFSET 5.34809 0.0 0.0
						CHANNELS 6 Xposition Yposition Zposition Zrotation Xrotation Yrotation 
						JOINT LowerArm_L
						{
							OFFSET 24.3286 1.87007e-05 0.0
							CHANNELS 6 Xposition Yposition Zposition Zrotation Xrotation Yrotation 
							JOINT Hand_L
							{
								OFFSET 22.2916 0.0 0.0
								CHANNELS 6 Xposition Yposition Zposition Zrotation Xrotation Yrotation 
								End Site
								{
									OFFSET 0.0 0.0 0.0
								}
							}
						}
					}
				}
				JOINT Shoulder_R
				{
					OFFSET 12.9945 -0.242716 -4.98039
					CHANNELS 6 Xposition Yposition Zposition Zrotation Xrotation Yrotation 
					JOINT UpperArm_R
					{
						OFFSET -5.34813 0.0 0.0
						CHANNELS 6 Xposition Yposition Zposition Zrotation Xrotation Yrotation 
						JOINT LowerArm_R
						{
							OFFSET -24.3289 0.000322201 0.0
							CHANNELS 6 Xposition Yposition Zposition Zrotation Xrotation Yrotation 
							JOINT Hand_R
							{
								OFFSET -22.2915 -0.000108084 0.0
								CHANNELS 6 Xposition Yposition Zposition Zrotation Xrotation Yrotation 
								End Site
								{
									OFFSET 0.0 0.0 0.0
								}
							}
						}
					}
				}
			}
		}
		JOINT UpperLeg_L
		{
			OFFSET -2.19248 -6.46944 0.0
			CHANNELS 6 Xposition Yposition Zposition Zrotation Xrotation Yrotation 
			JOINT LowerLeg_L
			{
				OFFSET 39.0811 0.0 -1.23785e-05
				CHANNELS 6 Xposition Yposition Zposition Zrotation Xrotation Yrotation 
				JOINT Foot_L
				{
					OFFSET 40.9854 0.0 -1.26872e-05
					CHANNELS 6 Xposition Yposition Zposition Zrotation Xrotation Yrotation 
					JOINT Toes_L
					{
						OFFSET 11.7543 0.0 0.0
						CHANNELS 6 Xposition Yposition Zposition Zrotation Xrotation Yrotation 
						End Site
						{
							OFFSET 0.0 0.0 0.0
						}
					}
				}
			}
		}
		JOINT UpperLeg_R
		{
			OFFSET -2.19251 6.46944 0.0
			CHANNELS 6 Xposition Yposition Zposition Zrotation Xrotation Yrotation 
			JOINT LowerLeg_R
			{
				OFFSET -39.0811 -0.00228153 -0.0401928
				CHANNELS 6 Xposition Yposition Zposition Zrotation Xrotation Yrotation 
				JOINT Foot_R
				{
					OFFSET -40.9854 0.0 0.0
					CHANNELS 6 Xposition Yposition Zposition Zrotation Xrotation Yrotation 
					JOINT Toes_R
					{
						OFFSET -11.7543 0.0 0.0
						CHANNELS 6 Xposition Yposition Zposition Zrotation Xrotation Yrotation 
						End Site
						{
							OFFSET 0.0 0.0 0.0
						}
					}
				}
			}
		}
	}
}
MOTION
Frames:	4
Frame Time:	0.0333333
0.000000 0.000000 0.000000 0.000000 0.000000 -0.000000 98.227800 86.913000 189.413000 -75.386200 67.010400 171.847000 15.735700 0.000005 -0.000001 106.965000 80.702900 -106.933000 8.984550 -0.406207 -0.000000 10.050200 5.391890 -0.409678 16.377300 -0.000001 -0.000001 11.977400 10.780300 0.870679 6.456720 -0.000001 -0.000000 2.206420 14.816400 0.155242 12.994200 -0.242716 4.980390 -88.528700 -3.237650 -65.544600 5.348090 -0.000007 -0.000001 -75.290900 20.213800 2.738070 24.328600 0.000019 0.000005 3.528850 10.786900 -18.236800 22.291600 -0.000001 0.000005 3.126860 5.444310 -4.437540 12.994500 -0.242716 -4.980390 88.732800 3.616600 -70.676100 -5.348130 -0.000001 -0.000004 -50.785300 17.317800 -35.247500 -24.328900 0.000322 -0.000009 5.328260 5.422800 -44.627900 -22.291500 -0.000108 -0.000004 7.647760 5.502940 -6.652140 -2.192480 -6.469440 -0.000000 174.532000 -20.629700 -30.816600 39.081100 -0.000007 -0.000012 -0.061878 0.085747 35.815800 40.985400 -0.000006 -0.000013 11.911800 -18.874800 -54.112400 11.754300 -0.000000 0.000003 -0.004936 -0.060857 -19.052900 -2.192510 6.469440 -0.000001 168.813000 18.091500 -173.401000 -39.081100 -0.002282 -0.040193 0.105191 -0.101567 45.101500 -40.985400 0.000008 0.000006 -7.705450 -4.157950 -57.510100 -11.754300 -0.000006 -0.000006 -0.131201 -0.516182 -38.295100
0.000000 0.000000 0.000000 0.000000 0.000000 -0.000000 101.862000 86.620800 186.573000 -76.997100 65.434000 175.067000 15.735700 0.000005 -0.000001 105.704000 80.475600 -105.987000 8.984550 -0.406207 -0.000000 10.615400 5.113020 -1.040630 16.377300 -0.000001 -0.000001 12.550600 10.495800 0.425480 6.456720 -0.000001 -0.000000 2.040590 14.622300 0.668115 12.994200 -0.242716 4.980390 -88.328700 -3.738780 -65.893200 5.348090 -0.000007 -0.000001 -75.421900 21.953500 0.467904 24.328600 0.000019 0.000005 4.001680 11.836800 -18.831000 22.291600 -0.000001 0.000005 2.276920 5.439280 -4.260760 12.994500 -0.242716 -4.980390 88.881000 3.169350 -70.541300 -5.348130 -0.000001 -0.000004 -53.420900 19.990400 -31.249900 -24.328900 0.000322 -0.000009 5.690830 5.744310 -44.880300 -22.291500 -0.000108 -0.000004 7.042790 5.506400 -6.793310 -2.192480 -6.469440 -0.000000 174.706000 -21.302500 -28.334300 39.081100 -0.000007 -0.000012 -0.194318 0.221903 41.208700 40.985400 -0.000006 -0.000013 10.344100 -17.836000 -60.570100 11.754300 -0.000000 0.000003 -0.002959 -0.040142 -18.209300 -2.192510 6.469440 -0.000001 167.152000 16.360700 -175.022000 -39.081100 -0.002282 -0.040193 0.269478 -0.204265 52.504100 -40.985400 0.000008 0.000006 -4.684280 -4.888550 -46.408500 -11.754300 -0.000006 -0.000006 -0.153172 -0.560963 -40.317500
0.000000 0.000000 0.000000 0.000000 0.000000 -0.000000 104.993000 86.390400 183.873000 -77.037800 63.452200 175.938000 15.735700 0.000005 -0.000001 104.466000 80.654900 -104.686000 8.984550 -0.406207 -0.000000 10.365500 4.632710 -0.860501 16.377300 -0.000001 -0.000001 12.754900 10.385000 0.012559 6.456720 -0.000001 -0.000000 2.946090 14.584400 0.628440 12.994200 -0.242716 4.980390 -88.286800 -3.787090 -65.636300 5.348090 -0.000007 -0.000001 -74.834500 24.354000 -1.933530 24.328600 0.000019 0.000005 4.656420 12.042600 -21.325100 22.291600 -0.000001 0.000005 1.923100 5.447450 -4.548400 12.994500 -0.242716 -4.980390 88.977500 2.879060 -70.438300 -5.348130 -0.000001 -0.000004 -54.814000 23.795600 -27.636900 -24.328900 0.000322 -0.000009 5.837570 6.054220 -44.114900 -22.291500 -0.000108 -0.000004 6.063730 5.513460 -7.085980 -2.192480 -6.469440 -0.000000 175.116000 -23.329000 -26.133400 39.081100 -0.000007 -0.000012 -0.272853 0.276244 44.646800 40.985400 -0.000006 -0.000013 10.030300 -15.064800 -65.958900 11.754300 -0.000000 0.000003 -0.001438 -0.021455 -17.449200 -2.192510 6.469440 -0.000001 167.976000 13.567100 -179.000000 -39.081100 -0.002282 -0.040193 0.340603 -0.195759 59.878300 -40.985400 0.000008 0.000006 -0.014701 -5.837560 -36.102200 -11.754300 -0.000006 -0.000006 -0.037253 -0.248968 -26.792600
0.000000 0.000000 0.000000 0.000000 0.000000 -0.000000 107.730000 86.283800 181.382000 -78.528500 60.115200 177.825000 15.735700 0.000005 -0.000001 100.890000 80.897600 -101.137000 8.984550 -0.406207 -0.000000 10.131600 3.412230 -0.795668 16.377300 -0.000001 -0.000001 12.578000 9.992090 -0.420253 6.456720 -0.000001 -0.000000 3.610570 14.610000 1.032310 12.994200 -0.242716 4.980390 -88.374800 -3.618060 -65.790800 5.348090 -0.000007 -0.000001 -73.678000 26.079100 -4.308120 24.328600 0.000019 0.000005 4.987540 10.408000 -25.785400 22.291600 -0.000001 0.000005 2.722640 5.471840 -5.437240 12.994500 -0.242716 -4.980390 88.858300 3.141550 -70.016200 -5.348130 -0.000001 -0.000004 -55.475800 27.884600 -24.491100 -24.328900 0.000322 -0.000009 6.665650 7.307400 -42.582400 -22.291500 -0.000108 -0.000004 4.989540 5.520820 -7.396990 -2.192480 -6.469440 -0.000000 175.148000 -22.449100 -23.382500 39.081100 -0.000007 -0.000012 -0.310567 0.297365 46.244700 40.985400 -0.000006 -0.000013 9.814450 -13.373900 -69.758200 11.754300 -0.000000 0.000003 -0.000574 -0.009165 -16.949700 -2.192510 6.469440 -0.000001 168.929000 10.789700 177.378000 -39.081100 -0.002282 -0.040193 0.292986 -0.127665 66.227700 -40.985400 0.000008 0.000006 -0.279634 -4.667460 -35.653200 -11.754300 -0.000006 -0.000006 -0.025054 -0.193827 -24.503100
